Normalized EMG Linear Envelopes
nRows=131
nColumns=4

endheader
time	 med_gas_r	  soleus_r	 tib_ant_r	
3.1873	  0.076224	  0.101294	  0.047307	
3.24979	  0.083087	  0.111020	  0.041136	
3.31229	  0.088208	  0.119907	  0.037358	
3.37478	  0.090937	  0.128314	  0.036531	
3.43728	  0.091709	  0.135131	  0.037262	
3.49978	  0.091220	  0.137957	  0.037524	
3.56227	  0.089873	  0.136761	  0.036962	
3.62477	  0.087473	  0.135627	  0.039477	
3.68726	  0.083407	  0.140776	  0.054061	
3.74976	  0.078031	  0.154024	  0.091295	
3.81226	  0.073907	  0.169598	  0.155377	
3.87475	  0.074982	  0.180058	  0.238310	
3.93725	  0.084645	  0.180974	  0.324639	
3.99974	  0.104912	  0.171622	  0.401009	
4.06224	  0.135372	  0.157253	  0.459487	
4.12474	  0.169956	  0.146530	  0.499509	
4.18723	  0.198531	  0.143978	  0.530389	
4.24973	  0.216791	  0.148582	  0.564565	
4.31222	  0.229755	  0.157213	  0.606890	
4.37472	  0.243001	  0.165835	  0.652849	
4.43722	  0.256830	  0.170703	  0.694780	
4.49971	  0.269103	  0.171121	  0.728598	
4.56221	  0.280805	  0.169235	  0.755359	
4.6247	  0.297849	  0.166282	  0.772717	
4.6872	  0.322430	  0.161267	  0.766693	
4.7497	  0.345556	  0.154182	  0.727849	
4.81219	  0.356661	  0.148203	  0.673611	
4.87469	  0.355336	  0.147203	  0.634498	
4.93718	  0.348428	  0.152343	  0.622865	
4.99968	  0.342864	  0.162514	  0.625442	
5.06218	  0.343083	  0.176493	  0.619499	
5.12467	  0.350630	  0.192078	  0.594893	
5.18717	  0.365164	  0.204894	  0.562232	
5.24966	  0.385402	  0.211286	  0.541427	
5.31216	  0.408097	  0.211369	  0.548390	
5.37466	  0.427156	  0.208736	  0.586141	
5.43715	  0.437364	  0.208727	  0.637011	
5.49965	  0.439313	  0.215625	  0.670456	
5.56214	  0.436241	  0.229770	  0.671871	
5.62464	  0.430087	  0.247169	  0.659197	
5.68714	  0.427094	  0.260952	  0.658273	
5.74963	  0.437955	  0.264823	  0.667925	
5.81213	  0.464541	  0.259365	  0.666312	
5.87462	  0.494930	  0.254582	  0.646635	
5.93712	  0.517002	  0.262280	  0.625391	
5.99962	  0.531243	  0.285318	  0.618509	
6.06211	  0.544929	  0.314778	  0.629319	
6.12461	  0.558725	  0.336710	  0.652111	
6.1871	  0.566569	  0.343258	  0.670489	
6.2496	  0.564356	  0.338847	  0.665249	
6.3121	  0.554407	  0.335112	  0.637830	
6.37459	  0.544273	  0.340830	  0.613116	
6.43709	  0.540455	  0.354928	  0.611256	
6.49958	  0.542523	  0.367339	  0.630201	
6.56208	  0.544222	  0.370565	  0.658363	
6.62458	  0.541600	  0.368957	  0.688560	
6.68707	  0.538698	  0.373026	  0.715873	
6.74957	  0.540309	  0.388569	  0.733307	
6.81206	  0.544205	  0.410684	  0.735297	
6.87456	  0.544778	  0.424081	  0.720891	
6.93706	  0.538803	  0.414044	  0.689223	
6.99955	  0.528927	  0.382354	  0.638789	
7.06205	  0.522243	  0.348858	  0.578034	
7.12454	  0.522614	  0.333633	  0.527121	
7.18704	  0.529060	  0.340329	  0.502115	
7.24954	  0.540168	  0.359705	  0.502793	
7.31203	  0.553112	  0.383770	  0.517321	
7.37453	  0.561840	  0.407270	  0.538699	
7.43702	  0.561684	  0.419297	  0.571439	
7.49952	  0.553551	  0.408288	  0.612171	
7.56202	  0.540582	  0.377034	  0.638167	
7.62451	  0.524667	  0.341997	  0.633192	
7.68701	  0.510982	  0.317339	  0.610609	
7.7495	  0.509389	  0.306977	  0.599872	
7.812	  0.524902	  0.310641	  0.618661	
7.8745	  0.550165	  0.327600	  0.655416	
7.93699	  0.567867	  0.350209	  0.674439	
7.99949	  0.562748	  0.364044	  0.648955	
8.06198	  0.536376	  0.363353	  0.591965	
8.12448	  0.503845	  0.357478	  0.543385	
8.18698	  0.477076	  0.356217	  0.528055	
8.24947	  0.462188	  0.360752	  0.538032	
8.31197	  0.463993	  0.370871	  0.551765	
8.37446	  0.480876	  0.387744	  0.554959	
8.43696	  0.501512	  0.407498	  0.542818	
8.49946	  0.512463	  0.420379	  0.517198	
8.56195	  0.507626	  0.420087	  0.486996	
8.62445	  0.489914	  0.410939	  0.463682	
8.68694	  0.466214	  0.401236	  0.454527	
8.74944	  0.443179	  0.394806	  0.463188	
8.81194	  0.426875	  0.394878	  0.489915	
8.87443	  0.422558	  0.405099	  0.524881	
8.93693	  0.431334	  0.419887	  0.549454	
8.99942	  0.446317	  0.426110	  0.549849	
9.06192	  0.455245	  0.419113	  0.525492	
9.12442	  0.450682	  0.408528	  0.485854	
9.18691	  0.435499	  0.406906	  0.445420	
9.24941	  0.417835	  0.417127	  0.419335	
9.3119	  0.405708	  0.431002	  0.415956	
9.3744	  0.403143	  0.438185	  0.431095	
9.4369	  0.408079	  0.436005	  0.450873	
9.49939	  0.416555	  0.431647	  0.461513	
9.56189	  0.424618	  0.433210	  0.459621	
9.62438	  0.428367	  0.438423	  0.453248	
9.68688	  0.428959	  0.439943	  0.451458	
9.74938	  0.430820	  0.438423	  0.454895	
9.81187	  0.432313	  0.437223	  0.455992	
9.87437	  0.425428	  0.432639	  0.447148	
9.93686	  0.405798	  0.418125	  0.429852	
9.99936	  0.377915	  0.386453	  0.413730	
10.0619	  0.349243	  0.330765	  0.405278	
10.1244	  0.323236	  0.256599	  0.401450	
10.1868	  0.295903	  0.185141	  0.396162	
10.2493	  0.259248	  0.136007	  0.388567	
10.3118	  0.215576	  0.112817	  0.381590	
10.3743	  0.180916	  0.106879	  0.376060	
10.4368	  0.164520	  0.107626	  0.371549	
10.4993	  0.156846	  0.108447	  0.370375	
10.5618	  0.146339	  0.108053	  0.373685	
10.6243	  0.135874	  0.108814	  0.375505	
10.6868	  0.135237	  0.113094	  0.366591	
10.7493	  0.147376	  0.120415	  0.342963	
10.8118	  0.166625	  0.127934	  0.310065	
10.8743	  0.182642	  0.133554	  0.278427	
10.9368	  0.185737	  0.137172	  0.253418	
10.9993	  0.175077	  0.138879	  0.234638	
11.0618	  0.160339	  0.138489	  0.224277	
11.1243	  0.150817	  0.137134	  0.222694	
11.1868	  0.145219	  0.137675	  0.219144	
11.2493	  0.135545	  0.142764	  0.201194	
11.3118	  0.119190	  0.151954	  0.169673	
